<svg xmlns="http://www.w3.org/2000/svg" xmlns:xlink="http://www.w3.org/1999/xlink" width="811" height="659" stroke="#000" stroke-linecap="round" stroke-linejoin="round" fill="#fff" fill-rule="evenodd">
    <style>
        <![CDATA[.B{stroke:none}.C{fill-rule:nonzero}.D{fill:#069}.E{stroke:#069}.F{stroke-linejoin:miter}.G{stroke-linecap:butt}.H{fill:none}.I{stroke-width:1.333}]]>
    </style>
    <g class="B C">
        <path d="M0 0h811v659H0z"/>
        <path d="M405 60c-30 53-51 104-63 151 15 13 30 28 43 43l20-40 21 40c13-15 27-30 43-43-12-47-33-98-64-151zm-173 93c-3 41-2 79 2 112 0 0 15 41 56 77 10 10 28 26 41 45 3-8 16-57 48-121-35-40-82-79-147-113zm347 0c-65 34-113 73-147 113 32 64 45 113 47 121 14-19 31-35 42-45 41-36 55-77 55-77 5-33 6-71 3-112zm0 0" fill="#484848"/>
        <path d="M107 218c3 31 6 71 33 113 16 6 36 17 52 27 6-52 24-92 24-92-38-16-65-12-109-48zm0 0" fill="#900"/>
        <path d="M703 218c-44 36-71 32-109 48 0 0 18 40 24 92 16-10 37-21 52-27 28-42 31-82 33-113zm0 0" class="D"/>
        <path d="M406 242c-97 188-81 268-49 315 24 37 74 37 99 0 31-47 47-127-50-315zm0 0" fill="#396"/>
        <path d="M225 278c-21 55-58 196 48 276 22 17 49 16 67 1-17-29-32-71-13-151-40-58-70-58-102-126zm360 0c-32 68-62 68-102 126 19 80 4 122-13 151 19 15 45 16 67-1 106-80 69-221 48-276zm172 47c-51 1-97 21-137 46 5 56-3 122-52 173 5 0 11-1 18-2 125-24 79-121 222-213-17-3-34-5-51-4zm-704 0c-16-1-34 1-51 5 143 91 97 188 223 212 6 1 12 2 18 2-50-51-58-117-53-172-39-26-86-45-137-47zm0 0" fill="#484848"/>
        <path d="M390 431c-5 0-9 4-9 8 0 2 1 5 3 6 1 2 4 3 6 3h45v-3h-45c-4 0-6-2-6-6 0-3 2-5 6-5h45v-3zm0 5v1h43v-1zm0 3v1h42v-1h0zm0 3v1h43v-1zm-10 7c-2 0-4 2-4 4v9c0 2 2 4 4 4h1c1 0 1 0 1-1h1c0 1 1 1 1 1h45v-3h-44-1-2-2 0c-1 0-1 0-1-1v-9c0-1 0-1 1-1h0 2 2 1 44v-3h-45s-1 0-1 1h-1c0-1 0-1-1-1zm5 5v1h43c0-1 0-1 1-1zm0 3v1h43l-1-1h1zm0 3v1h44c-1 0-1 0-1-1zm5 8c-5 0-9 3-9 8s4 8 9 8h45v-2h-45c-4 0-6-3-6-6s2-6 6-6h45v-2zm0 4v1h43v-1zm0 4v1h42v-1h0zm0 3v1h43v-1zm0 0" fill="#396"/>
    </g>
    <path d="M644 292h7" class="E F G H I"/>
    <use xlink:href="#B" class="B C D"/>
    <path d="M644 273h7" class="E F G H I"/>
    <use xlink:href="#B" y="-19" class="B C D"/>
    <path d="M661 283h7" class="E F G H I"/>
    <use xlink:href="#B" x="17" y="-10" class="B C D"/>
    <path d="M661 302h7" class="E F G H I"/>
    <use xlink:href="#B" x="17" y="9" class="B C D"/>
    <path d="M637 285v1l2 3 1 1" class="E F G H I"/>
    <use xlink:href="#C" class="B C D"/>
    <path d="M637 281v-1l2-3 1-1" class="E F G H I"/>
    <use xlink:href="#D" class="B C D"/>
    <path d="M655 290v-1l2-3 1-1" class="E F G H I"/>
    <use xlink:href="#D" x="18" y="9" class="B C D"/>
    <path d="M655 271v-1l2-3 1-1" class="E F G H I"/>
    <use xlink:href="#D" x="18" y="-10" class="B C D"/>
    <path d="M672 280v-1l2-3 1-1" class="E F G H I"/>
    <use xlink:href="#D" x="36" class="B C D"/>
    <path d="M655 309v-1l2-3 1-1" class="E F G H I"/>
    <use xlink:href="#D" x="18" y="28" class="B C D"/>
    <path d="M655 295v1l2 3 1 1" class="E F G H I"/>
    <use xlink:href="#C" x="18" y="10" class="B C D"/>
    <path d="M672 285v1l2 3 1 1" class="E F G H I"/>
    <use xlink:href="#C" x="35" class="B C D"/>
    <path d="M654 276v1l2 3 1 1" class="E F G H I"/>
    <use xlink:href="#C" x="18" y="-9" class="B C D"/>
    <path d="M626 283h7" class="E F G H I"/>
    <g class="B C">
        <use xlink:href="#B" x="-18" y="-10" class="D"/>
        <path d="M162 261c-3 5-5 11-6 15 1 2 3 3 4 5l2-4 2 4c1-2 3-3 5-5-2-4-4-10-7-15zm-18 9c0 5 0 8 1 12 0 0 1 4 5 8 1 1 3 2 4 4 1-1 2-5 5-12-3-4-8-8-15-12zm36 0c-7 4-12 8-15 12 3 7 4 11 5 12 1-2 3-3 4-4 4-4 5-8 5-8 1-4 1-7 1-12zm-48 7c0 3 0 7 3 12 2 0 4 1 5 2 1-5 3-9 3-9-4-2-7-1-11-5zm60 0c-4 4-7 3-11 5 0 0 2 4 3 9 1-1 3-2 5-2 3-5 3-9 3-12zm-30 2c-10 20-8 28-5 33 3 3 8 3 10 0 3-5 5-13-5-33zm-18 4c-2 6-6 20 5 28 2 2 5 2 6 0-1-3-3-7-1-15-4-6-7-6-10-13zm36 0c-3 7-6 7-10 13 2 8 0 12-1 15 2 2 4 2 6 0 11-8 7-22 5-28zm18 5c-5 0-10 2-14 5 0 5 0 12-5 17h1c13-2 9-12 23-22h-5zm-72 0h-5c15 10 10 20 23 22h1c-5-5-5-12-5-17-4-3-9-5-14-5zm0 0" fill="#900"/>
    </g>
    <defs >
        <path id="B" d="M653 289c2 0 4 2 4 4 0 1-2 3-4 3s-3-2-3-4c0-1 1-3 3-3zm-12 7c-2 0-3-2-3-4s2-3 3-3c2 0 4 2 4 3 0 2-2 4-4 4zm0 0"/>
        <path id="C" d="M644 290c0 2 0 4-2 5-1 1-3 0-4-2-1-1-1-3 1-4s4-1 5 1zm-12-6c0-2 0-4 2-5 1 0 3 0 4 2 1 1 1 3-1 4s-4 1-5-1zm0 0"/>
        <path id="D" d="M638 272c1-2 3-2 4-2 2 1 2 3 2 5-1 2-3 2-5 1s-2-3-1-4zm0 12c-1 2-3 3-4 2-2-1-2-3-2-5 1-2 3-2 5-1s2 3 1 4zm0 0"/>
    </defs>
</svg>