<svg xmlns="http://www.w3.org/2000/svg" width="900" height="225" stroke="#000" stroke-linecap="round" stroke-linejoin="round" fill="#fff" fill-rule="evenodd">
    <defs>
        <clipPath id="A">
            <path d="M.00001.00001L899.113 0v224.262H0zM0 0" stroke="none" stroke-linejoin="miter" stroke-linecap="butt" fill="none" transform="translate(1.686996459961 1.906002044678)"/>
        </clipPath>
    </defs>
    <g stroke="none" fill-rule="nonzero">
        <path d="M.25201.25201L899.365.252v224.262H.252zM.252.252"/>
        <path d="M73.541008056641 16.544999267578v176.652h90.434v14.473h-106.946v-191.125zm0 0" fill="#484848"/>
        <path d="M270.650006591797 209.583999420166c-13.355 0-25.719-2.367-37.098-7.098-11.371-4.734-21.297-11.422-29.777-20.066s-15.023-18.934-19.633-30.855c-4.602-11.926-6.902-25.078-6.902-39.457s2.301-27.527 6.902-39.453c4.609-11.922 11.152-22.207 19.633-30.852s18.406-15.336 29.777-20.066c11.379-4.734 23.742-7.102 37.098-7.102 13.176 0 25.406 2.367 36.688 7.102s21.117 11.422 29.512 20.066 14.934 18.93 19.625 30.852 7.043 25.074 7.043 39.453-2.348 27.531-7.043 39.457-11.234 22.211-19.625 30.855-18.23 15.332-29.512 20.066-23.512 7.098-36.687 7.098zm0-14.477c14.262 0 27.125-3.363 38.582-10.094 11.465-6.734 20.582-16.293 27.352-28.672s10.152-27.121 10.152-44.234-3.383-31.898-10.152-44.367-15.887-22.02-27.352-28.66c-11.457-6.648-24.32-9.973-38.582-9.973-14.437 0-27.434 3.324-38.984 9.973-11.555 6.641-20.715 16.195-27.48 28.66s-10.157 27.258-10.157 44.367 3.387 31.859 10.156 44.234 15.926 21.938 27.48 28.672 24.547 10.094 38.984 10.094zm0 0"/>
        <path d="M381.388992698458 16.54499887085h138.895v14.477h-61.187v176.648h-16.246v-176.649h-61.461zm173.555 0h16.516v120.133c0 13.84 2.434 25.082 7.309 33.727s11.414 14.922 19.625 18.836 17.379 5.867 27.488 5.867 19.176-1.953 27.211-5.867 14.438-10.191 19.223-18.836 7.176-19.887 7.176-33.727v-120.133h16.516v119.863c0 12.742-1.852 23.711-5.555 32.906s-8.797 16.746-15.293 22.656-13.988 10.332-22.477 13.242c-8.48 2.91-17.508 4.371-27.074 4.371-12.816 0-24.551-2.594-35.199-7.785s-19.223-13.148-25.719-23.891-9.746-24.57-9.746-41.5zm193.043 145.258c1.262 5.098 3.699 10.195 7.309 15.293s8.715 9.328 15.301 12.695 15.211 5.051 25.859 5.051c14.98 0 26.078-3.457 33.297-10.375s10.836-15.477 10.836-25.668c0-7.824-2.035-14.289-6.098-19.387s-9.562-9.285-16.516-12.562c-6.945-3.273-14.75-6.187-23.414-8.738-7.402-2-14.578-4.227-21.527-6.684s-13.223-5.508-18.82-9.148-10.016-8.324-13.262-14.062-4.875-12.879-4.875-21.434c0-10.555 2.438-19.699 7.309-27.437s11.777-13.785 20.715-18.152 19.449-6.559 31.543-6.559c10.648 0 19.852 1.594 27.613 4.781s14.168 7.555 19.227 13.105 8.664 11.695 10.828 18.43l-14.348 5.461c-1.445-4.187-4.02-8.418-7.723-12.695s-8.57-7.824-14.617-10.652c-6.047-2.82-13.219-4.234-21.523-4.234-7.762 0-14.891 1.414-21.387 4.234s-11.687 6.922-15.574 12.293-5.82 11.785-5.82 19.246c0 8.008 2.164 14.332 6.492 18.977 4.336 4.641 10.07 8.371 17.199 11.195s15.027 5.504 23.688 8.051c7.402 2.367 14.578 4.914 21.531 7.648 6.949 2.727 13.086 6.098 18.41 10.102s9.566 8.965 12.723 14.879 4.738 13.148 4.738 21.699c0 9.289-2.121 17.934-6.359 25.945s-10.785 14.422-19.633 19.246-20.305 7.238-34.387 7.238c-12.09 0-22.516-1.867-31.273-5.594-8.754-3.734-15.84-8.742-21.254-15.02s-9.109-13.336-11.094-21.164zm-476.102-146.028c-11.598 20.203-19.242 39.313-23.914 57.16 5.879 5.164 11.289 10.609 16.258 16.309l7.656-15.094 7.742 15.094c4.895-5.695 10.305-11.145 16.254-16.309-4.742-17.848-12.398-36.957-23.996-57.16zm-65.285 35.129c-1.203 15.723-.711 29.926.945 42.762.078 0 5.387 15.551 20.902 29.145 3.992 3.57 10.445 9.871 15.57 17.086.902-3.187 5.828-21.656 17.805-45.883-12.879-15.266-30.668-30.121-55.223-43.109zm130.57 0c-24.555 12.988-42.418 27.844-55.223 43.109 11.977 24.305 16.902 42.695 17.805 45.883 5.121-7.215 11.578-13.516 15.57-17.086 15.516-13.672 20.902-29.145 20.902-29.145 1.656-12.836 2.148-27.039.945-42.762zm0 0" fill="#484848"/>
        <path d="M159.807002675781 75.365005147705c.97999 11.69499 2.06999 26.90999 12.38699 42.93799 5.875 2.352 13.566 6.328 19.441 9.973 2.258-19.367 9.203-34.609 9.203-34.609-14.16-6.152-24.461-4.781-41.031-18.301zm-.00001-.00001" fill="#900"/>
        <path d="M384.048992675781 75.364995147705c-16.57 13.52-26.957 12.148-41.117 18.301 0 0 6.945 15.242 9.203 34.609 5.875-3.645 13.566-7.621 19.441-9.973 10.316-16.027 11.492-31.242 12.473-42.937zm0 0" fill="#069"/>
        <path d="M271.884952253899 84.470990325928c-36.531 71.168-30.5549 101.766-18.578 119.617 9.336 13.898 27.902 13.898 37.242 0 11.977-17.852 17.8631-48.449-18.664-119.617zm0 0" fill="#396"/>
        <path d="M204.275002929688 98.263997772217c-7.906 20.887-21.789 74.227 17.98 104.609 8.359 6.453 18.262 6.148 25.113.605-6.477-11.164-11.82-27.105-4.816-57.336-15.211-22.023-26.449-22.207-38.277-47.879zm135.129 0c-11.746 25.746-22.973 25.855-38.187 47.879 7.004 30.23 1.66 46.172-4.82 57.336 6.93 5.469 16.758 5.848 25.117-.605 39.691-30.461 25.875-83.723 17.891-104.609zm64.77 17.695c-18.961.664-36.551 8.238-51.352 17.695 1.961 21.113-1.102 46.207-19.781 65.574 2.184-.078 4.375-.41 6.711-.867 47.297-9.039 30-46.023 83.777-80.582-6.574-1.5-13.035-2.043-19.355-1.82zm-264.492.086c-6.32-.215-12.781.324-19.352 1.82 53.773 34.484 36.477 71.543 83.777 80.582 2.332.457 4.523.715 6.707.867-18.68-19.441-21.742-44.535-19.785-65.574-14.797-9.512-32.387-17.047-51.348-17.695zm0 0" fill="#484848"/>
    </g>
    <path d="M.00001.00001L902.508 0v227.527H0zM0 0" stroke="#069" stroke-linejoin="miter" stroke-linecap="butt" fill="none" stroke-width=".504" transform="translate(-1.434996459961 -1.654002044678)" clip-path="url(#A)"/>
</svg>